<svg width="1440" height="1024" viewBox="0 0 1440 1024" fill="none" xmlns="http://www.w3.org/2000/svg">
<g clip-path="url(#clip0_694_3882)">
<rect width="1440" height="1024" fill="black"/>
<g filter="url(#filter0_f_694_3882)">
<circle cx="209.178" cy="125.178" r="163.178" fill="#0BEEB8" fill-opacity="0.5"/>
</g>
<g filter="url(#filter1_f_694_3882)">
<circle cx="1298.18" cy="920.178" r="163.178" fill="#0BEEB8" fill-opacity="0.5"/>
</g>
<path d="M310.188 84.4134C309.999 84.3426 309.796 84.3186 309.596 84.3436C309.395 84.3685 309.204 84.4416 309.038 84.5566C308.872 84.6716 308.737 84.825 308.643 85.0038C308.549 85.1826 308.5 85.3815 308.5 85.5834V105.795C307.345 104.87 305.915 104.356 304.436 104.333C302.957 104.311 301.512 104.781 300.329 105.669C299.146 106.558 298.292 107.815 297.902 109.242C297.513 110.669 297.608 112.186 298.175 113.552C298.742 114.919 299.747 116.059 301.032 116.791C302.318 117.524 303.81 117.808 305.275 117.599C306.74 117.39 308.093 116.7 309.123 115.637C310.152 114.574 310.798 113.199 310.96 111.728C310.986 111.627 311 111.522 311 111.417V95.72L322.645 100.087C322.834 100.157 323.038 100.181 323.238 100.156C323.438 100.132 323.629 100.058 323.795 99.9435C323.961 99.8285 324.097 99.675 324.191 99.4962C324.284 99.3174 324.333 99.1186 324.333 98.9167V93.4717C324.334 92.3688 323.997 91.292 323.369 90.3854C322.741 89.4788 321.851 88.7856 320.818 88.3984L310.188 84.4134Z" fill="#E2A21F"/>
<path d="M224 522H226.5V532H224V522ZM217.75 518.25H220.25V532H217.75V518.25ZM211.5 524.5H214V532H211.5V524.5ZM209 549.5H206.5V542C206.499 541.006 206.104 540.052 205.401 539.349C204.698 538.646 203.744 538.251 202.75 538.25H197.75C196.756 538.251 195.802 538.646 195.099 539.349C194.396 540.052 194.001 541.006 194 542V549.5H191.5V542C191.502 540.343 192.161 538.754 193.333 537.583C194.504 536.411 196.093 535.752 197.75 535.75H202.75C204.407 535.752 205.996 536.411 207.167 537.583C208.339 538.754 208.998 540.343 209 542V549.5ZM200.25 523.25C200.992 523.25 201.717 523.47 202.333 523.882C202.95 524.294 203.431 524.88 203.715 525.565C203.998 526.25 204.073 527.004 203.928 527.732C203.783 528.459 203.426 529.127 202.902 529.652C202.377 530.176 201.709 530.533 200.982 530.678C200.254 530.823 199.5 530.748 198.815 530.465C198.13 530.181 197.544 529.7 197.132 529.083C196.72 528.467 196.5 527.742 196.5 527C196.5 526.005 196.895 525.052 197.598 524.348C198.302 523.645 199.255 523.25 200.25 523.25ZM200.25 520.75C199.014 520.75 197.805 521.117 196.778 521.803C195.75 522.49 194.949 523.466 194.476 524.608C194.003 525.75 193.879 527.007 194.12 528.219C194.361 529.432 194.957 530.545 195.831 531.419C196.705 532.293 197.818 532.889 199.031 533.13C200.243 533.371 201.5 533.247 202.642 532.774C203.784 532.301 204.76 531.5 205.447 530.472C206.133 529.445 206.5 528.236 206.5 527C206.5 526.179 206.338 525.367 206.024 524.608C205.71 523.85 205.25 523.161 204.669 522.581C204.089 522 203.4 521.54 202.642 521.226C201.883 520.912 201.071 520.75 200.25 520.75Z" fill="#00A7E5"/>
<path d="M1110 96.2222C1102.94 96.2222 1097.22 101.943 1097.22 109V111.778H1101.67C1101.96 111.778 1102.24 111.895 1102.45 112.103C1102.66 112.312 1102.78 112.594 1102.78 112.889V124C1102.78 124.295 1102.66 124.577 1102.45 124.786C1102.24 124.994 1101.96 125.111 1101.67 125.111H1100C1098.67 125.111 1097.4 124.584 1096.46 123.647C1095.53 122.709 1095 121.437 1095 120.111V109C1095 100.716 1101.72 94 1110 94C1118.28 94 1125 100.716 1125 109V120.111C1125 121.437 1124.47 122.709 1123.54 123.647C1122.6 124.584 1121.33 125.111 1120 125.111H1118.33C1118.04 125.111 1117.76 124.994 1117.55 124.786C1117.34 124.577 1117.22 124.295 1117.22 124V112.889C1117.22 112.594 1117.34 112.312 1117.55 112.103C1117.76 111.895 1118.04 111.778 1118.33 111.778H1122.78V109C1122.78 101.943 1117.06 96.2222 1110 96.2222ZM1111.11 110.667C1111.11 110.372 1110.99 110.089 1110.79 109.881C1110.58 109.673 1110.29 109.556 1110 109.556C1109.71 109.556 1109.42 109.673 1109.21 109.881C1109.01 110.089 1108.89 110.372 1108.89 110.667V125.111C1108.89 125.406 1109.01 125.688 1109.21 125.897C1109.42 126.105 1109.71 126.222 1110 126.222C1110.29 126.222 1110.58 126.105 1110.79 125.897C1110.99 125.688 1111.11 125.406 1111.11 125.111V110.667ZM1106.11 114C1106.41 114 1106.69 114.117 1106.9 114.325C1107.11 114.534 1107.22 114.816 1107.22 115.111V120.667C1107.22 120.961 1107.11 121.244 1106.9 121.452C1106.69 121.661 1106.41 121.778 1106.11 121.778C1105.82 121.778 1105.53 121.661 1105.33 121.452C1105.12 121.244 1105 120.961 1105 120.667V115.111C1105 114.816 1105.12 114.534 1105.33 114.325C1105.53 114.117 1105.82 114 1106.11 114ZM1115 115.111C1115 114.816 1114.88 114.534 1114.67 114.325C1114.47 114.117 1114.18 114 1113.89 114C1113.59 114 1113.31 114.117 1113.1 114.325C1112.89 114.534 1112.78 114.816 1112.78 115.111V120.667C1112.78 120.961 1112.89 121.244 1113.1 121.452C1113.31 121.661 1113.59 121.778 1113.89 121.778C1114.18 121.778 1114.47 121.661 1114.67 121.452C1114.88 121.244 1115 120.961 1115 120.667V115.111Z" fill="#E40173"/>
<path d="M1157 871.836C1157 884.753 1146.32 895.345 1133 895.345C1119.68 895.345 1109 884.753 1109 871.836C1109 858.919 1119.68 848.328 1133 848.328C1146.32 848.328 1157 858.919 1157 871.836Z" stroke="#E40173" stroke-width="8"/>
<rect x="311" y="850" width="20" height="20" fill="#D9DBE9"/>
</g>
<defs>
<filter id="filter0_f_694_3882" x="-554" y="-638" width="1526.36" height="1526.36" filterUnits="userSpaceOnUse" color-interpolation-filters="sRGB">
<feFlood flood-opacity="0" result="BackgroundImageFix"/>
<feBlend mode="normal" in="SourceGraphic" in2="BackgroundImageFix" result="shape"/>
<feGaussianBlur stdDeviation="300" result="effect1_foregroundBlur_694_3882"/>
</filter>
<filter id="filter1_f_694_3882" x="535" y="157" width="1526.36" height="1526.36" filterUnits="userSpaceOnUse" color-interpolation-filters="sRGB">
<feFlood flood-opacity="0" result="BackgroundImageFix"/>
<feBlend mode="normal" in="SourceGraphic" in2="BackgroundImageFix" result="shape"/>
<feGaussianBlur stdDeviation="300" result="effect1_foregroundBlur_694_3882"/>
</filter>
<clipPath id="clip0_694_3882">
<rect width="1440" height="1024" fill="white"/>
</clipPath>
</defs>
</svg>
