<svg width="141" height="140" viewBox="0 0 141 140" fill="none" xmlns="http://www.w3.org/2000/svg">
<path fill-rule="evenodd" clip-rule="evenodd" d="M96.7538 43.75C94.3387 43.75 92.1423 44.73 90.5584 46.3137L61.7516 75.1275L50.4372 63.8137C48.8533 62.2387 46.6657 61.2587 44.2505 61.2587C39.4115 61.2587 35.5 65.17 35.5 70.0087C35.5 72.4237 36.4713 74.6112 38.0552 76.1862L55.5563 93.695C57.1401 95.2787 59.3277 96.25 61.7516 96.25C64.1668 96.25 66.3544 95.2787 67.9383 93.695L102.94 58.695C104.524 57.1112 105.504 54.9237 105.504 52.5C105.504 47.67 101.584 43.75 96.7538 43.75ZM119.997 20.5012C92.6608 -6.83375 48.3392 -6.83375 21.0025 20.5012C-6.33418 47.845 -6.33418 92.1637 21.0025 119.499C48.3392 146.834 92.6608 146.834 119.997 119.499C147.334 92.1637 147.334 47.845 119.997 20.5012ZM107.625 107.127C87.1228 127.628 53.8794 127.628 33.3769 107.127C12.8744 86.6253 12.8744 53.384 33.3769 32.8828C53.8794 12.3815 87.1228 12.3815 107.625 32.8828C128.128 53.384 128.128 86.6253 107.625 107.127Z" fill="url(#paint0_linear_1274_2144)"/>
<defs>
<linearGradient id="paint0_linear_1274_2144" x1="32.9645" y1="7.44076" x2="120.927" y2="140.142" gradientUnits="userSpaceOnUse">
<stop stop-color="#0BEEB8"/>
<stop offset="1" stop-color="#EA9010"/>
</linearGradient>
</defs>
</svg>
